<svg width="30" height="30" viewBox="0 0 30 30" fill="none" xmlns="http://www.w3.org/2000/svg">
<g filter="url(#filter0_dd_878_13966)">
<circle cx="15" cy="13.4993" r="11.2" fill="white" stroke="white" stroke-width="1.60005"/>
<path d="M6.54641 14.7815C6.01139 15.0573 5.47636 15.3332 4.90891 15.5603C4.86027 15.5765 4.82785 15.6414 4.84406 15.6901C4.97376 16.3229 5.16832 16.9232 5.41151 17.4911C5.42772 17.5398 5.49258 17.5722 5.54121 17.556C6.6599 17.3288 7.51918 16.8583 8.45953 16.3229C10.2592 15.3332 12.2858 14.1974 16.6957 14.1974C20.3435 14.1974 23.1322 13.8242 25.3047 13.3699C25.3533 13.3537 25.402 13.305 25.402 13.2564C25.3857 12.3802 25.256 11.5365 25.0453 10.7415C25.0291 10.6766 24.948 10.6442 24.8831 10.6604L24.7859 10.6928C22.4836 11.5852 19.3383 12.8021 14.7987 12.8021C10.3402 12.8345 8.32982 13.8729 6.54641 14.7815Z" fill="#973999"/>
<path d="M20.5058 19.4229C21.5434 19.4229 22.4999 19.4554 23.4241 19.504C23.4565 19.504 23.5051 19.4878 23.5213 19.4554C23.797 19.0497 24.0564 18.6441 24.2671 18.206C24.2996 18.1249 24.2509 18.0276 24.1699 18.0438C23.0836 18.06 21.9163 18.0438 20.6192 18.0438C19.9707 18.0438 19.306 18.0438 18.6089 18.0438C14.8313 18.0438 13.1613 19.0497 11.5401 20.0394C10.6159 20.5911 9.72421 21.1427 8.54067 21.4186C8.4434 21.4348 8.42718 21.5646 8.49204 21.6295C9.14055 22.1487 9.85392 22.603 10.6159 22.9599C10.6321 22.9762 10.6646 22.9762 10.697 22.9599C11.7346 22.7003 12.4966 22.1974 13.3559 21.6295C14.9285 20.5911 16.712 19.4229 20.5058 19.4229Z" fill="#F78200"/>
<path d="M20.5068 20.6245C17.0697 20.6245 15.5132 21.6467 14.0216 22.6364C13.6001 22.9122 13.1786 23.1881 12.7084 23.4477C12.6111 23.4963 12.6273 23.6424 12.7408 23.6586C13.4704 23.8208 14.2324 23.9019 15.0106 23.9019C17.8803 23.9019 20.4744 22.7338 22.3551 20.8517C22.4199 20.7868 22.3713 20.657 22.274 20.657C21.7065 20.6407 21.1229 20.6245 20.5068 20.6245Z" fill="#FFB900"/>
<path d="M12.7084 23.4467C15.0106 23.2212 21.1741 21.4966 22.3551 20.8507C20.4744 22.7328 17.8803 23.901 15.0106 23.901C14.2324 23.901 13.4704 23.8199 12.7408 23.6576C12.6273 23.6414 12.6111 23.4954 12.7084 23.4467Z" fill="#5EBD3E"/>
<path d="M5.99587 13.711C6.90379 13.2404 7.94141 12.705 9.3195 12.3156C10.8921 11.8613 12.6756 11.6342 14.7832 11.6342C16.6964 11.6342 18.496 11.407 20.3118 10.9527C21.8845 10.5471 23.1815 10.0441 24.3326 9.60605C24.3812 9.58983 24.4299 9.57361 24.4785 9.54116C24.5434 9.52493 24.5758 9.44381 24.5434 9.37891C22.9545 5.67962 19.2742 3.09985 14.994 3.09985C9.25465 3.09985 4.60156 7.75641 4.60156 13.5C4.60156 13.7434 4.61778 13.9706 4.61778 14.2139C4.61778 14.2951 4.71505 14.3437 4.7799 14.3113C5.20144 14.1328 5.59055 13.9219 5.99587 13.711Z" fill="#009CDF"/>
<path d="M10.8146 18.9452C12.5008 17.9392 14.3977 16.7872 18.4995 16.7872C19.1967 16.7872 19.8776 16.7872 20.5261 16.7872C22.0663 16.7872 23.4444 16.7872 24.6766 16.771C24.7253 16.771 24.7739 16.7386 24.7901 16.6899C25.0009 16.0571 25.1468 15.4081 25.2279 14.7429C25.2441 14.6618 25.163 14.5969 25.0819 14.6131C22.8932 15.0512 20.1532 15.3919 16.6026 15.3919C14.7706 15.3919 13.2141 15.6028 11.8685 16.0247C10.6849 16.3978 9.80943 16.8846 8.95015 17.3713C8.04223 17.8743 7.16674 18.3611 6.06427 18.6369C5.9832 18.6531 5.95078 18.7505 5.99942 18.8154C6.32367 19.3508 6.68035 19.8538 7.10189 20.3243C7.13431 20.3567 7.16674 20.373 7.19917 20.3567C8.70696 20.2269 9.69595 19.6266 10.8146 18.9452Z" fill="#E23838"/>
</g>
<defs>
<filter id="filter0_dd_878_13966" x="0.545327" y="0.13556" width="28.9093" height="28.9106" filterUnits="userSpaceOnUse" color-interpolation-filters="sRGB">
<feFlood flood-opacity="0" result="BackgroundImageFix"/>
<feColorMatrix in="SourceAlpha" type="matrix" values="0 0 0 0 0 0 0 0 0 0 0 0 0 0 0 0 0 0 127 0" result="hardAlpha"/>
<feMorphology radius="0.272741" operator="dilate" in="SourceAlpha" result="effect1_dropShadow_878_13966"/>
<feOffset dy="1.09097"/>
<feGaussianBlur stdDeviation="1.09097"/>
<feComposite in2="hardAlpha" operator="out"/>
<feColorMatrix type="matrix" values="0 0 0 0 0 0 0 0 0 0 0 0 0 0 0 0 0 0 0.3 0"/>
<feBlend mode="normal" in2="BackgroundImageFix" result="effect1_dropShadow_878_13966"/>
<feColorMatrix in="SourceAlpha" type="matrix" values="0 0 0 0 0 0 0 0 0 0 0 0 0 0 0 0 0 0 127 0" result="hardAlpha"/>
<feMorphology radius="0.272741" operator="dilate" in="SourceAlpha" result="effect2_dropShadow_878_13966"/>
<feOffset/>
<feComposite in2="hardAlpha" operator="out"/>
<feColorMatrix type="matrix" values="0 0 0 0 0 0 0 0 0 0 0 0 0 0 0 0 0 0 0.05 0"/>
<feBlend mode="normal" in2="effect1_dropShadow_878_13966" result="effect2_dropShadow_878_13966"/>
<feBlend mode="normal" in="SourceGraphic" in2="effect2_dropShadow_878_13966" result="shape"/>
</filter>
</defs>
</svg>
