<svg width="20" height="19" viewBox="0 0 20 19" fill="none" xmlns="http://www.w3.org/2000/svg">
  <g filter="url(#filter0_d_2813_19436)">
    <rect x="2" y="1" width="16" height="16" rx="2" fill="white"/>
    <circle cx="9.99964" cy="8.99988" r="5.29889" fill="white" stroke="white" stroke-width="0.598012"/>
    <path d="M5.93448 9.61596C5.67727 9.74856 5.42007 9.88116 5.14728 9.99035C5.1239 9.99815 5.10831 10.0294 5.1161 10.0528C5.17845 10.3569 5.27198 10.6455 5.38889 10.9185C5.39669 10.9419 5.42786 10.9575 5.45125 10.9497C5.98903 10.8405 6.40212 10.6143 6.85417 10.3569C7.71931 9.88116 8.69356 9.33517 10.8135 9.33517C12.5672 9.33517 13.9078 9.15577 14.9522 8.93737C14.9756 8.92958 14.9989 8.90618 14.9989 8.88278C14.9911 8.46158 14.9288 8.05599 14.8275 7.6738C14.8197 7.6426 14.7807 7.627 14.7495 7.6348L14.7028 7.6504C13.596 8.07939 12.084 8.66438 9.90164 8.66438C7.75828 8.67998 6.79182 9.17917 5.93448 9.61596Z" fill="#00A0F7"/>
    <path d="M12.6458 11.8465C13.1446 11.8465 13.6045 11.8621 14.0488 11.8855C14.0643 11.8855 14.0877 11.8777 14.0955 11.8621C14.228 11.6671 14.3527 11.4721 14.454 11.2615C14.4696 11.2225 14.4463 11.1757 14.4073 11.1835C13.8851 11.1913 13.3239 11.1835 12.7004 11.1835C12.3886 11.1835 12.0691 11.1835 11.7339 11.1835C9.91792 11.1835 9.11513 11.6671 8.33573 12.1429C7.89147 12.4081 7.4628 12.6732 6.89383 12.8058C6.84707 12.8136 6.83928 12.876 6.87045 12.9072C7.18221 13.1568 7.52515 13.3752 7.89147 13.5468C7.89926 13.5546 7.91485 13.5546 7.93044 13.5468C8.42926 13.422 8.79558 13.1802 9.20866 12.9072C9.96468 12.4081 10.822 11.8465 12.6458 11.8465Z" fill="#00A0F7"/>
    <path d="M12.6464 12.4248C10.9941 12.4248 10.2458 12.9162 9.52878 13.392C9.32614 13.5246 9.12349 13.6572 8.89747 13.782C8.8507 13.8054 8.8585 13.8756 8.91305 13.8834C9.26379 13.9614 9.63011 14.0004 10.0042 14.0004C11.3838 14.0004 12.6308 13.4388 13.5349 12.534C13.5661 12.5028 13.5427 12.4404 13.4959 12.4404C13.2232 12.4326 12.9426 12.4248 12.6464 12.4248Z" fill="#00A0F7"/>
    <path d="M8.89747 13.781C10.0042 13.6726 12.9672 12.8435 13.5349 12.5331C12.6308 13.4378 11.3838 13.9994 10.0042 13.9994C9.63011 13.9994 9.26379 13.9604 8.91305 13.8824C8.8585 13.8746 8.8507 13.8044 8.89747 13.781Z" fill="#00A0F7"/>
    <path d="M5.6698 9.1011C6.10626 8.87491 6.60508 8.61751 7.26758 8.43031C8.0236 8.21192 8.88094 8.10272 9.89417 8.10272C10.8139 8.10272 11.679 7.99352 12.5519 7.77513C13.308 7.58013 13.9315 7.33834 14.4849 7.12774C14.5082 7.11994 14.5316 7.11214 14.555 7.09654C14.5862 7.08874 14.6018 7.04974 14.5862 7.01854C13.8224 5.24018 12.0531 4 9.99549 4C7.2364 4 4.99951 6.23856 4.99951 8.9997C4.99951 9.1167 5.00731 9.2259 5.00731 9.3429C5.00731 9.3819 5.05407 9.4053 5.08525 9.3897C5.28789 9.3039 5.47495 9.2025 5.6698 9.1011Z" fill="#00A0F7"/>
    <path d="M7.98676 11.617C8.79734 11.1334 9.70925 10.5796 11.6811 10.5796C12.0163 10.5796 12.3436 10.5796 12.6554 10.5796C13.3958 10.5796 14.0583 10.5796 14.6507 10.5718C14.674 10.5718 14.6974 10.5562 14.7052 10.5328C14.8065 10.2286 14.8767 9.9166 14.9157 9.59681C14.9235 9.55781 14.8845 9.52661 14.8455 9.53441C13.7933 9.745 12.4761 9.9088 10.7692 9.9088C9.88851 9.9088 9.14028 10.0102 8.49338 10.213C7.92441 10.3924 7.50353 10.6264 7.09045 10.8604C6.65398 11.1022 6.23311 11.3362 5.70311 11.4688C5.66414 11.4766 5.64855 11.5234 5.67194 11.5546C5.82782 11.812 5.99929 12.0538 6.20193 12.28C6.21752 12.2956 6.23311 12.3034 6.24869 12.2956C6.97354 12.2332 7.44898 11.9446 7.98676 11.617Z" fill="#00A0F7"/>
  </g>
  <defs>
    <filter id="filter0_d_2813_19436" x="0.5" y="0" width="19" height="19" filterUnits="userSpaceOnUse" color-interpolation-filters="sRGB">
      <feFlood flood-opacity="0" result="BackgroundImageFix"/>
      <feColorMatrix in="SourceAlpha" type="matrix" values="0 0 0 0 0 0 0 0 0 0 0 0 0 0 0 0 0 0 127 0" result="hardAlpha"/>
      <feOffset dy="0.5"/>
      <feGaussianBlur stdDeviation="0.75"/>
      <feColorMatrix type="matrix" values="0 0 0 0 0 0 0 0 0 0 0 0 0 0 0 0 0 0 0.4 0"/>
      <feBlend mode="normal" in2="BackgroundImageFix" result="effect1_dropShadow_2813_19436"/>
      <feBlend mode="normal" in="SourceGraphic" in2="effect1_dropShadow_2813_19436" result="shape"/>
    </filter>
  </defs>
</svg>
