<svg width="16" height="16" viewBox="0 0 16 16" fill="none" xmlns="http://www.w3.org/2000/svg">
  <rect
    x="2.69678"
    y="8"
    width="7.5"
    height="7.5"
    rx="1.5"
    transform="rotate(-45 2.69678 8)"
    fill="#fff"
  />
  <path
    fillRule="evenodd"
    clipRule="evenodd"
    d="M3.30004 14C2.58205 14 2 13.418 2 12.7V8.65573C1.17103 8.65573 0.499023 9.32774 0.499023 10.1567V12.7C0.499023 14.2469 1.75308 15.501 3.30004 15.501H5.8433C6.67226 15.501 7.34427 14.829 7.34427 14H3.30004ZM8.65573 14C8.65573 14.829 9.32774 15.501 10.1567 15.501H12.7C14.2469 15.501 15.501 14.2469 15.501 12.7V10.1567C15.501 9.32774 14.829 8.65573 14 8.65573V12.7C14 13.418 13.418 14 12.7 14H8.65573ZM14 7.34427C14.829 7.34427 15.501 6.67226 15.501 5.8433V3.30004C15.501 1.75308 14.2469 0.499023 12.7 0.499023H10.1567C9.32774 0.499023 8.65573 1.17103 8.65573 2H12.7C13.418 2 14 2.58205 14 3.30004V7.34427ZM7.34427 2C7.34427 1.17103 6.67226 0.499023 5.8433 0.499023H3.30004C1.75308 0.499023 0.499023 1.75308 0.499023 3.30004V5.8433C0.499023 6.67226 1.17103 7.34427 2 7.34427V3.30004C2 2.58205 2.58205 2 3.30004 2H7.34427Z"
    fill="#fff"
  />
</svg>
