<svg width="1024" height="1024" viewBox="0 0 1024 1024" fill="none" xmlns="http://www.w3.org/2000/svg">
<g filter="url(#filter0_bd_1503_5142)">
<g clip-path="url(#clip0_1503_5142)">
<rect x="100" y="100" width="824" height="824" rx="184" fill="#5C5C5C" fill-opacity="0.4"/>
<circle cx="512" cy="512" r="577" fill="url(#paint0_radial_1503_5142)" fill-opacity="0.5"/>
<g filter="url(#filter1_dd_1503_5142)">
<path d="M768.651 511.992C768.651 653.737 653.744 768.645 511.999 768.645C370.255 768.645 255.348 653.737 255.348 511.992C255.348 370.246 370.255 255.339 511.999 255.339C653.744 255.339 768.651 370.246 768.651 511.992Z" fill="white" stroke="white" stroke-width="36.6659"/>
<path d="M638.159 647.712C661.936 647.712 683.856 648.455 705.033 649.571C705.776 649.571 706.89 649.199 707.262 648.455C713.578 639.16 719.522 629.865 724.352 619.826C725.095 617.967 723.981 615.737 722.123 616.108C697.231 616.48 670.481 616.108 640.759 616.108C625.898 616.108 610.666 616.108 594.69 616.108C508.125 616.108 469.858 639.16 432.706 661.84C411.529 674.481 391.095 687.123 363.974 693.443C361.745 693.815 361.373 696.789 362.859 698.277C377.72 710.174 394.067 720.585 411.529 728.765C411.901 729.136 412.644 729.136 413.387 728.765C437.164 722.816 454.626 711.29 474.317 698.277C510.354 674.481 551.222 647.712 638.159 647.712Z" fill="#F78200"/>
<path d="M638.186 675.258C559.423 675.258 523.757 698.681 489.577 721.361C479.917 727.682 470.257 734.003 459.483 739.951C457.254 741.067 457.626 744.413 460.226 744.785C476.945 748.503 494.406 750.362 512.24 750.362C577.999 750.362 637.443 723.592 680.54 680.463C682.026 678.976 680.911 676.001 678.682 676.001C665.679 675.63 652.304 675.258 638.186 675.258Z" fill="#E23838"/>
<path d="M305.632 516.833C326.437 506.05 350.215 493.781 381.794 484.858C417.832 474.447 458.7 469.242 506.998 469.242C550.837 469.242 592.077 464.037 633.687 453.626C669.725 444.331 699.447 432.805 725.825 422.767C726.94 422.395 728.054 422.023 729.169 421.279C730.655 420.908 731.398 419.049 730.655 417.561C694.246 332.79 609.91 273.674 511.827 273.674C380.308 273.674 273.681 380.381 273.681 511.999C273.681 517.576 274.052 522.781 274.052 528.358C274.052 530.217 276.281 531.333 277.767 530.589C287.427 526.499 296.344 521.666 305.632 516.833Z" fill="#009CDF"/>
<path d="M416.075 636.776C454.714 613.724 498.182 587.326 592.177 587.326C608.153 587.326 623.757 587.326 638.618 587.326C673.913 587.326 705.492 587.326 733.728 586.954C734.843 586.954 735.957 586.211 736.329 585.095C741.158 570.595 744.502 555.723 746.36 540.479C746.731 538.62 744.874 537.133 743.016 537.505C692.86 547.543 630.073 555.351 548.709 555.351C506.727 555.351 471.061 560.185 440.224 569.851C413.103 578.403 393.041 589.557 373.35 600.711C352.545 612.237 332.482 623.391 307.219 629.712C305.361 630.083 304.618 632.314 305.733 633.801C313.163 646.071 321.337 657.597 330.996 668.379C331.739 669.123 332.482 669.494 333.225 669.123C367.777 666.148 390.44 652.392 416.075 636.776Z" fill="#FFB900"/>
<path d="M318.257 541.377C305.997 547.698 293.736 554.019 280.733 559.224C279.619 559.596 278.876 561.083 279.247 562.198C282.219 576.698 286.678 590.455 292.25 603.468C292.622 604.584 294.108 605.327 295.223 604.955C320.858 599.75 340.548 588.968 362.097 576.698C403.336 554.019 449.776 527.992 550.831 527.992C634.424 527.992 698.326 519.441 748.11 509.03C749.224 508.659 750.339 507.543 750.339 506.428C749.967 486.351 746.995 467.017 742.165 448.798C741.794 447.311 739.936 446.568 738.45 446.939L736.221 447.683C683.465 468.132 611.389 496.017 507.363 496.017C405.194 496.761 359.125 520.556 318.257 541.377Z" fill="#5EBD3E"/>
</g>
</g>
</g>
<defs>
<filter id="filter0_bd_1503_5142" x="50" y="50" width="924" height="924" filterUnits="userSpaceOnUse" color-interpolation-filters="sRGB">
<feFlood flood-opacity="0" result="BackgroundImageFix"/>
<feGaussianBlur in="BackgroundImageFix" stdDeviation="25"/>
<feComposite in2="SourceAlpha" operator="in" result="effect1_backgroundBlur_1503_5142"/>
<feColorMatrix in="SourceAlpha" type="matrix" values="0 0 0 0 0 0 0 0 0 0 0 0 0 0 0 0 0 0 127 0" result="hardAlpha"/>
<feOffset dy="11"/>
<feGaussianBlur stdDeviation="11"/>
<feColorMatrix type="matrix" values="0 0 0 0 0 0 0 0 0 0 0 0 0 0 0 0 0 0 0.28 0"/>
<feBlend mode="normal" in2="effect1_backgroundBlur_1503_5142" result="effect2_dropShadow_1503_5142"/>
<feBlend mode="normal" in="SourceGraphic" in2="effect2_dropShadow_1503_5142" result="shape"/>
</filter>
<filter id="filter1_dd_1503_5142" x="180.765" y="205.756" width="662.47" height="662.503" filterUnits="userSpaceOnUse" color-interpolation-filters="sRGB">
<feFlood flood-opacity="0" result="BackgroundImageFix"/>
<feColorMatrix in="SourceAlpha" type="matrix" values="0 0 0 0 0 0 0 0 0 0 0 0 0 0 0 0 0 0 127 0" result="hardAlpha"/>
<feMorphology radius="6.24999" operator="dilate" in="SourceAlpha" result="effect1_dropShadow_1503_5142"/>
<feOffset dy="25"/>
<feGaussianBlur stdDeviation="25"/>
<feComposite in2="hardAlpha" operator="out"/>
<feColorMatrix type="matrix" values="0 0 0 0 0 0 0 0 0 0 0 0 0 0 0 0 0 0 0.3 0"/>
<feBlend mode="normal" in2="BackgroundImageFix" result="effect1_dropShadow_1503_5142"/>
<feColorMatrix in="SourceAlpha" type="matrix" values="0 0 0 0 0 0 0 0 0 0 0 0 0 0 0 0 0 0 127 0" result="hardAlpha"/>
<feMorphology radius="6.24999" operator="dilate" in="SourceAlpha" result="effect2_dropShadow_1503_5142"/>
<feOffset/>
<feComposite in2="hardAlpha" operator="out"/>
<feColorMatrix type="matrix" values="0 0 0 0 0 0 0 0 0 0 0 0 0 0 0 0 0 0 0.05 0"/>
<feBlend mode="normal" in2="effect1_dropShadow_1503_5142" result="effect2_dropShadow_1503_5142"/>
<feBlend mode="normal" in="SourceGraphic" in2="effect2_dropShadow_1503_5142" result="shape"/>
</filter>
<radialGradient id="paint0_radial_1503_5142" cx="0" cy="0" r="1" gradientUnits="userSpaceOnUse" gradientTransform="translate(512 512) rotate(-180) scale(577)">
<stop stop-color="#DEE2E9" stop-opacity="0.71"/>
<stop offset="1" stop-color="#D4DBE6" stop-opacity="0"/>
</radialGradient>
<clipPath id="clip0_1503_5142">
<rect x="100" y="100" width="824" height="824" rx="184" fill="white"/>
</clipPath>
</defs>
</svg>
