<svg width="1024" height="1024" viewBox="0 0 1024 1024" fill="none" xmlns="http://www.w3.org/2000/svg">
<rect x="95.2554" y="95.2559" width="833.488" height="833.488" rx="142.884" fill="white"/>
<path d="M366.878 534.098C357.658 538.891 348.439 543.546 338.643 547.533C338.198 547.708 337.83 548.037 337.606 548.459C337.382 548.882 337.316 549.37 337.421 549.837C339.733 560.456 343.02 570.839 347.24 580.855C347.424 581.291 347.756 581.648 348.177 581.863C348.599 582.079 349.084 582.137 349.545 582.03C368.86 578.135 383.519 570.001 399.722 560.99C430.377 543.869 465.296 524.466 541.195 524.466C603.957 524.466 651.667 518.198 689.029 510.201C689.487 510.105 689.896 509.852 690.186 509.485C690.476 509.119 690.63 508.663 690.62 508.196C690.319 493.569 688.221 479.035 684.374 464.92C684.302 464.648 684.174 464.395 683.997 464.177C683.821 463.959 683.6 463.781 683.349 463.655C683.099 463.528 682.824 463.457 682.544 463.444C682.263 463.432 681.984 463.479 681.723 463.583L679.948 464.274C640.443 479.622 586.347 500.615 508.42 500.615C432.151 500.615 397.463 518.405 366.878 534.098Z" fill="white"/>
<path d="M606.7 613.572C624.401 613.572 641.066 614.125 656.785 615.001C657.126 615.024 657.467 614.957 657.774 614.807C658.081 614.658 658.344 614.43 658.536 614.148C663.34 607.286 667.654 600.094 671.444 592.625C671.597 592.315 671.668 591.972 671.651 591.627C671.635 591.283 671.53 590.948 671.348 590.655C671.165 590.362 670.911 590.12 670.61 589.953C670.308 589.785 669.968 589.698 669.623 589.698C651.046 589.882 630.786 589.836 608.59 589.698C597.457 589.698 585.956 589.698 574.017 589.698C509.227 589.698 480.37 607.119 452.481 623.942C436.577 633.528 421.296 642.769 401.013 647.723C400.651 647.813 400.321 648.001 400.06 648.268C399.8 648.534 399.618 648.868 399.537 649.232C399.455 649.596 399.477 649.975 399.6 650.327C399.722 650.68 399.94 650.991 400.23 651.226C411.475 660.269 423.773 667.922 436.854 674.017C437.274 674.204 437.745 674.244 438.191 674.132C455.961 669.753 469.214 661.043 483.873 651.41C510.84 633.689 541.426 613.572 606.7 613.572Z" fill="white"/>
<path d="M606.721 634.291C547.647 634.291 520.98 651.804 495.188 668.742C487.928 673.512 480.598 678.328 472.6 682.568C472.236 682.761 471.941 683.062 471.754 683.429C471.567 683.797 471.497 684.213 471.555 684.621C471.613 685.029 471.796 685.409 472.077 685.71C472.359 686.01 472.727 686.217 473.13 686.301C485.896 689.146 498.934 690.591 512.014 690.611C535.487 690.642 558.734 686.032 580.419 677.046C602.104 668.061 621.797 654.878 638.367 638.254C638.64 637.977 638.826 637.626 638.904 637.244C638.981 636.863 638.945 636.467 638.801 636.105C638.656 635.743 638.41 635.431 638.091 635.207C637.773 634.983 637.396 634.857 637.007 634.844C627.257 634.498 617.162 634.291 606.721 634.291Z" fill="white"/>
<path d="M357.413 515.676C373.109 507.634 390.879 498.486 414.619 491.572C441.586 483.714 472.241 479.912 508.405 479.912C540.459 480.01 572.397 476.054 603.457 468.136C626.92 461.878 649.962 454.135 672.442 444.954L674.978 443.963C675.228 443.867 675.457 443.721 675.651 443.535C675.844 443.348 675.998 443.125 676.104 442.877C676.209 442.63 676.264 442.364 676.264 442.096C676.265 441.827 676.211 441.561 676.107 441.313C659.834 403.565 631.036 372.583 594.573 353.595C558.109 334.607 516.21 328.774 475.945 337.08C435.68 345.387 399.512 367.324 373.544 399.192C347.575 431.06 333.395 470.907 333.396 512.012C333.396 516.091 333.534 520.147 333.811 524.157C333.835 524.48 333.936 524.792 334.106 525.068C334.276 525.344 334.51 525.575 334.788 525.742C335.065 525.909 335.379 526.007 335.702 526.028C336.025 526.048 336.349 525.992 336.646 525.862C343.583 522.774 350.36 519.294 357.413 515.676Z" fill="white"/>
<path d="M441.727 606.249C470.653 588.804 503.428 569.033 573.98 569.033H608.692C635.036 569.033 658.753 569.033 680.027 568.825C680.443 568.814 680.844 568.675 681.178 568.428C681.512 568.18 681.762 567.836 681.894 567.442C685.445 556.555 687.93 545.35 689.316 533.982C689.368 533.668 689.344 533.346 689.246 533.043C689.149 532.739 688.981 532.464 688.755 532.239C688.53 532.013 688.254 531.845 687.951 531.747C687.648 531.65 687.325 531.626 687.011 531.678C649.557 539.26 602.33 545.044 541.297 545.044C509.697 545.044 483.053 548.615 459.82 555.967C439.537 562.396 424.394 570.807 409.758 579.011C394.223 587.652 379.242 595.971 360.134 600.81C359.831 600.891 359.551 601.041 359.316 601.248C359.08 601.455 358.896 601.714 358.778 602.004C358.66 602.295 358.61 602.608 358.634 602.921C358.657 603.234 358.752 603.537 358.913 603.806C364.414 612.934 370.716 621.556 377.743 629.569C377.952 629.806 378.212 629.992 378.504 630.112C378.796 630.232 379.111 630.283 379.426 630.261C405.609 628.025 422.504 617.84 441.727 606.249Z" fill="white"/>
<circle cx="513.389" cy="513.389" r="191.177" fill="white" stroke="white" stroke-width="21.5755"/>
<path d="M366.734 535.617C357.455 540.401 348.175 545.185 338.333 549.125C337.49 549.406 336.927 550.532 337.208 551.376C339.458 562.351 342.832 572.763 347.05 582.612C347.332 583.457 348.456 584.02 349.3 583.738C368.703 579.798 383.606 571.638 399.916 562.351C431.129 545.185 466.278 525.487 542.764 525.487C606.034 525.487 654.4 519.014 692.081 511.135C692.924 510.853 693.768 510.009 693.768 509.165C693.487 493.969 691.237 479.336 687.581 465.547C687.3 464.421 685.894 463.858 684.769 464.14L683.082 464.703C643.152 480.18 588.6 501.286 509.864 501.286C432.535 501.848 397.666 519.858 366.734 535.617Z" fill="#973999"/>
<path d="M608.87 616.104C626.867 616.104 643.457 616.667 659.486 617.511C660.048 617.511 660.892 617.23 661.173 616.667C665.953 609.632 670.453 602.597 674.108 594.999C674.67 593.592 673.827 591.903 672.421 592.184C653.581 592.466 633.334 592.184 610.838 592.184C599.591 592.184 588.061 592.184 575.97 592.184C510.451 592.184 481.487 609.632 453.367 626.798C437.339 636.366 421.873 645.933 401.346 650.717C399.659 650.999 399.377 653.25 400.502 654.376C411.75 663.381 424.123 671.26 437.339 677.451C437.62 677.733 438.183 677.733 438.745 677.451C456.742 672.949 469.958 664.225 484.862 654.376C512.138 636.366 543.07 616.104 608.87 616.104Z" fill="#F78200"/>
<path d="M608.888 636.944C549.274 636.944 522.279 654.673 496.409 671.839C489.098 676.623 481.787 681.407 473.632 685.909C471.945 686.754 472.226 689.286 474.194 689.568C486.848 692.382 500.065 693.789 513.562 693.789C563.334 693.789 608.326 673.527 640.945 640.884C642.07 639.758 641.226 637.507 639.539 637.507C629.697 637.226 619.574 636.944 608.888 636.944Z" fill="#FFB900"/>
<path d="M473.632 685.912C513.562 682.002 620.462 652.088 640.945 640.887C608.326 673.53 563.334 693.791 513.562 693.791C500.065 693.791 486.848 692.384 474.194 689.57C472.226 689.289 471.945 686.756 473.632 685.912Z" fill="#5EBD3E"/>
<path d="M357.183 517.041C372.93 508.88 390.927 499.594 414.829 492.84C442.105 484.96 473.037 481.021 509.593 481.021C542.774 481.021 573.987 477.081 605.481 469.201C632.757 462.166 655.253 453.443 675.218 445.845C676.062 445.563 676.906 445.282 677.749 444.719C678.874 444.438 679.436 443.031 678.874 441.905C651.317 377.744 587.484 333 513.248 333C413.704 333 333 413.764 333 513.383C333 517.604 333.281 521.543 333.281 525.764C333.281 527.172 334.968 528.016 336.093 527.453C343.404 524.357 350.153 520.699 357.183 517.041Z" fill="#009CDF"/>
<path d="M440.777 606.192C470.022 588.745 502.922 568.765 574.065 568.765C586.157 568.765 597.967 568.765 609.215 568.765C635.929 568.765 659.831 568.765 681.202 568.483C682.045 568.483 682.889 567.921 683.17 567.076C686.826 556.101 689.357 544.845 690.763 533.307C691.044 531.9 689.638 530.775 688.232 531.056C650.27 538.654 602.747 544.564 541.165 544.564C509.39 544.564 482.395 548.222 459.055 555.539C438.528 562.011 423.343 570.453 408.439 578.896C392.692 587.619 377.508 596.061 358.386 600.845C356.98 601.127 356.418 602.815 357.261 603.941C362.885 613.227 369.072 621.951 376.383 630.112C376.945 630.675 377.508 630.956 378.07 630.675C404.221 628.423 421.375 618.011 440.777 606.192Z" fill="#E23838"/>
</svg>
