<svg width="1024" height="1024" viewBox="0 0 1024 1024" fill="none" xmlns="http://www.w3.org/2000/svg">
<g filter="url(#filter0_d_801_3560)">
<rect x="100" y="100" width="824" height="824" rx="184" fill="black" fill-opacity="0.3"/>
</g>
<g filter="url(#filter1_d_801_3560)">
<rect x="146" y="146" width="732" height="732" rx="163.456" fill="white"/>
<circle cx="512.5" cy="511.5" r="212.333" fill="white" stroke="white" stroke-width="30.3343"/>
<path d="M352.24 535.81C342.097 541.039 331.954 546.268 321.196 550.574C320.274 550.882 319.659 552.112 319.967 553.035C322.426 565.032 326.114 576.413 330.725 587.179C331.032 588.101 332.261 588.717 333.184 588.409C354.392 584.103 370.682 575.182 388.51 565.032C422.628 546.268 461.049 524.736 544.653 524.736C613.811 524.736 666.678 517.662 707.866 509.049C708.788 508.741 709.71 507.818 709.71 506.896C709.403 490.285 706.944 474.29 702.948 459.218C702.641 457.988 701.104 457.372 699.874 457.68L698.03 458.295C654.384 475.213 594.754 498.283 508.691 498.283C424.165 498.898 386.051 518.584 352.24 535.81Z" fill="#973999"/>
<path d="M616.886 623.814C636.558 623.814 654.693 624.43 672.213 625.352C672.828 625.352 673.75 625.045 674.057 624.43C679.282 616.74 684.2 609.05 688.196 600.745C688.811 599.207 687.889 597.361 686.352 597.669C665.758 597.976 643.628 597.669 619.038 597.669C606.743 597.669 594.141 597.669 580.924 597.669C509.307 597.669 477.649 616.74 446.912 635.503C429.392 645.962 412.486 656.42 390.048 661.649C388.204 661.957 387.897 664.417 389.126 665.648C401.421 675.491 414.945 684.104 429.392 690.871C429.699 691.178 430.314 691.178 430.928 690.871C450.6 685.949 465.046 676.414 481.337 665.648C511.152 645.962 544.962 623.814 616.886 623.814Z" fill="#F78200"/>
<path d="M616.911 646.586C551.749 646.586 522.241 665.965 493.963 684.728C485.972 689.957 477.98 695.186 469.066 700.108C467.222 701.031 467.53 703.799 469.681 704.107C483.513 707.183 497.959 708.721 512.713 708.721C567.117 708.721 616.296 686.574 651.951 650.892C653.18 649.662 652.258 647.201 650.414 647.201C639.656 646.894 628.591 646.586 616.911 646.586Z" fill="#FFB900"/>
<path d="M469.066 700.087C512.713 695.812 629.561 663.115 651.951 650.871C616.296 686.552 567.117 708.699 512.713 708.699C497.959 708.699 483.513 707.161 469.681 704.085C467.53 703.778 467.222 701.009 469.066 700.087Z" fill="#5EBD3E"/>
<path d="M341.805 515.542C359.017 506.622 378.689 496.471 404.815 489.089C434.63 480.476 468.441 476.17 508.399 476.17C544.668 476.17 578.786 471.863 613.211 463.25C643.026 455.56 667.616 446.025 689.439 437.72C690.361 437.412 691.283 437.105 692.205 436.489C693.435 436.182 694.049 434.644 693.435 433.413C663.312 363.281 593.54 314.373 512.394 314.373C403.586 314.373 315.371 402.654 315.371 511.543C315.371 516.157 315.678 520.464 315.678 525.078C315.678 526.616 317.523 527.538 318.752 526.923C326.744 523.54 334.121 519.541 341.805 515.542Z" fill="#009CDF"/>
<path d="M433.161 614.787C465.128 595.716 501.09 573.877 578.854 573.877C592.071 573.877 604.98 573.877 617.275 573.877C646.475 573.877 672.601 573.877 695.961 573.569C696.883 573.569 697.806 572.954 698.113 572.031C702.109 560.035 704.875 547.731 706.412 535.12C706.719 533.582 705.182 532.351 703.646 532.659C662.151 540.964 610.206 547.423 542.892 547.423C508.159 547.423 478.652 551.422 453.14 559.42C430.702 566.495 414.104 575.722 397.814 584.95C380.601 594.486 364.003 603.714 343.102 608.943C341.565 609.251 340.951 611.096 341.873 612.327C348.02 622.477 354.782 632.013 362.774 640.933C363.389 641.548 364.003 641.856 364.618 641.548C393.203 639.088 411.953 627.707 433.161 614.787Z" fill="#E23838"/>
</g>
<defs>
<filter id="filter0_d_801_3560" x="78" y="89" width="868" height="868" filterUnits="userSpaceOnUse" color-interpolation-filters="sRGB">
<feFlood flood-opacity="0" result="BackgroundImageFix"/>
<feColorMatrix in="SourceAlpha" type="matrix" values="0 0 0 0 0 0 0 0 0 0 0 0 0 0 0 0 0 0 127 0" result="hardAlpha"/>
<feOffset dy="11"/>
<feGaussianBlur stdDeviation="11"/>
<feColorMatrix type="matrix" values="0 0 0 0 0 0 0 0 0 0 0 0 0 0 0 0 0 0 0.28 0"/>
<feBlend mode="normal" in2="BackgroundImageFix" result="effect1_dropShadow_801_3560"/>
<feBlend mode="normal" in="SourceGraphic" in2="effect1_dropShadow_801_3560" result="shape"/>
</filter>
<filter id="filter1_d_801_3560" x="126.456" y="136.228" width="771.087" height="771.087" filterUnits="userSpaceOnUse" color-interpolation-filters="sRGB">
<feFlood flood-opacity="0" result="BackgroundImageFix"/>
<feColorMatrix in="SourceAlpha" type="matrix" values="0 0 0 0 0 0 0 0 0 0 0 0 0 0 0 0 0 0 127 0" result="hardAlpha"/>
<feOffset dy="9.77184"/>
<feGaussianBlur stdDeviation="9.77184"/>
<feColorMatrix type="matrix" values="0 0 0 0 0 0 0 0 0 0 0 0 0 0 0 0 0 0 0.28 0"/>
<feBlend mode="normal" in2="BackgroundImageFix" result="effect1_dropShadow_801_3560"/>
<feBlend mode="normal" in="SourceGraphic" in2="effect1_dropShadow_801_3560" result="shape"/>
</filter>
</defs>
</svg>
